<?xml version="1.0" encoding="utf-8"?>
<!-- Generator: Adobe Illustrator 19.2.1, SVG Export Plug-In . SVG Version: 6.00 Build 0)  -->
<!DOCTYPE svg PUBLIC "-//W3C//DTD SVG 1.1//EN" "http://www.w3.org/Graphics/SVG/1.1/DTD/svg11.dtd">
<svg version="1.1" id="Layer_1" xmlns="http://www.w3.org/2000/svg" xmlns:xlink="http://www.w3.org/1999/xlink" x="0px" y="0px"
	 viewBox="0 0 1020 372" style="enable-background:new 0 0 1020 372;" xml:space="preserve">
<style type="text/css">
	.st0{fill:none;stroke:#000000;stroke-width:3;stroke-miterlimit:10;}
	.st1{fill:none;stroke:#000000;stroke-width:12;stroke-miterlimit:10;}
</style>
<rect x="6" y="6" class="st0" width="72" height="360"/>
<rect x="78" y="6" class="st0" width="72" height="360"/>
<rect x="150" y="6" class="st0" width="72" height="360"/>
<rect x="222" y="6" class="st0" width="72" height="360"/>
<rect x="294" y="6" class="st0" width="72" height="360"/>
<rect x="366" y="6" class="st0" width="72" height="360"/>
<rect x="438" y="6" class="st0" width="72" height="360"/>
<rect x="54" y="6" width="48" height="216"/>
<rect x="126" y="6" width="48" height="216"/>
<rect x="269.3" y="6" width="48" height="216"/>
<rect x="342" y="6" width="48" height="216"/>
<rect x="414" y="6" width="48" height="216"/>
<rect x="510" y="6" class="st0" width="72" height="360"/>
<rect x="582" y="6" class="st0" width="72" height="360"/>
<rect x="654" y="6" class="st0" width="72" height="360"/>
<rect x="726" y="6" class="st0" width="72" height="360"/>
<rect x="798" y="6" class="st0" width="72" height="360"/>
<rect x="870" y="6" class="st0" width="72" height="360"/>
<rect x="942" y="6" class="st0" width="72" height="360"/>
<rect x="558" y="6" width="48" height="216"/>
<rect x="630" y="6" width="48" height="216"/>
<rect x="773.3" y="6" width="48" height="216"/>
<rect x="846" y="6" width="48" height="216"/>
<rect x="918" y="6" width="48" height="216"/>
<rect x="6" y="6" class="st1" width="1008" height="360"/>
</svg>
